<?xml version="1.0" encoding="UTF-8" standalone="yes"?>
<svg version="1.1" id="Layer_1" xmlns:x="&amp;ns_extend;" xmlns:i="&amp;ns_ai;" xmlns:graph="&amp;ns_graphs;" xmlns="http://www.w3.org/2000/svg" xmlns:xlink="http://www.w3.org/1999/xlink" x="0px" y="0px" viewBox="0 0 315 250.5295715" style="enable-background:new 0 0 315 250.5295715;" xml:space="preserve">
      <style type="text/css">.st0{fill:url(#SVGID_1_);}</style>
    <metadata>
              <sfw>
                      <slices/>
            <sliceSourceBounds bottomLeftOrigin="true" height="250.5295715" width="315" x="-3.4309776" y="-284.4756775"/>
                  </sfw>
          </metadata>
    <g id="color_index_g">
              <linearGradient id="SVGID_1_" gradientUnits="userSpaceOnUse" x1="-1.818989e-12" y1="125.2647858" x2="315" y2="125.2647858">
                      <stop offset="0" style="stop-color:rgba(0, 203, 206, 1)"/>
            <stop offset="1" style="stop-color:rgba(72, 139, 185, 1)"/>
                  </linearGradient>
        <path class="st0" d="M95.8372726,219.3885651c-7.8510284,19.292511-26.5089722,31.0081482-46.1555862,31.0081482&#x9;&#x9;c-6.2290459,0-12.5558128-1.1765137-18.6719017-3.6640778C5.6024461,236.3927765-6.665266,207.3061523,3.6618989,181.8937378&#x9;&#x9;c7.8979902-19.3839111,27.1770248-31.7993927,48.0125275-30.980072h37.5294151l-7.9277344,19.4943085h-32.817337&#x9;&#x9;c-11.7118225,0.5245667-22.2487946,7.8104248-26.7405148,18.8329315&#x9;&#x9;c-6.2785406,15.4507751,1.1828575,33.1454163,16.637434,39.435379c15.449501,6.2785339,33.136528-1.1828613,39.4264908-16.6361694&#x9;&#x9;l0.0009537,0.0003967l56.0626602-137.8045044c6.3941193-15.7254601,20.9109344-25.4986343,37.8970032-25.4986343&#x9;&#x9;c16.9730377,0,31.5027924,9.7731743,37.8969116,25.4986343l26.096405,64.1622849h-21.040863l-23.1072998-56.8194733&#x9;&#x9;c-4.0157776-9.8381348-12.8792114-13.3471298-19.8451538-13.3471298c-6.9660339,0-15.842392,3.5089951-19.8452454,13.3471298&#x9;&#x9;L95.8372726,219.3885651z M253.8528442,182.9232635h-21.040863l19.5722809,48.1119995&#x9;&#x9;c5.0606842,11.4889679,16.5909882,19.4883881,29.9043121,19.4943085C300.327301,250.5295715,315,235.8568726,315,217.8311462&#x9;&#x9;c0-18.0387573-14.672699-32.7115326-32.7114258-32.7115326c-4.613739,0-9.0063782,0.9747162-12.9962158,2.7032471&#x9;&#x9;l7.3558044,18.077774c1.7155151-0.8187714,3.6259155-1.2866974,5.6404114-1.2866974&#x9;&#x9;c7.2908325,0,13.2171021,5.9262695,13.2171021,13.2172089c0,7.2778473-5.9262695,13.2041168-13.2171021,13.2041168&#x9;&#x9;c-5.4194946,0-10.0720825-3.2880096-12.0994873-7.9666901L253.8528442,182.9232635z M290.255249,151.4984283l-40.2102814-98.797142&#x9;&#x9;c-13.2821808-32.6855011-43.5503235-52.9076042-78.861084-52.6996994&#x9;&#x9;c-34.4399567,0.2079838-65.2019653,21.7036896-78.1721649,53.6093712l-34.504921,84.7873383h21.0408707l31.8926697-78.3542023&#x9;&#x9;c12.1644363-29.9042931,39.1056366-40.5481949,60.2764282-40.5481949c21.1577911,0,48.1119995,10.6438999,60.2764435,40.5481949&#x9;&#x9;l36.9742279,90.8695679H137.1468811l-7.9277344,19.4943085h148.3127441&#x9;&#x9;C287.2790527,170.4079742,293.9331055,160.5308075,290.255249,151.4984283z"/>
          </g>
  </svg>