<?xml version="1.0" standalone="no"?>
<!DOCTYPE svg PUBLIC "-//W3C//DTD SVG 20010904//EN"
 "http://www.w3.org/TR/2001/REC-SVG-20010904/DTD/svg10.dtd">
<svg version="1.0" xmlns="http://www.w3.org/2000/svg"
 width="1920.000000pt" height="1920.000000pt" viewBox="0 0 1920.000000 1920.000000"
 preserveAspectRatio="xMidYMid meet">

<g transform="translate(0.000000,1920.000000) scale(0.100000,-0.100000)"
fill="#000000" stroke="none">
<path d="M5 19188 c-3 -7 -4 -4326 -3 -9598 l3 -9585 9595 0 9595 0 0 9595 0
9595 -9593 3 c-7669 2 -9594 0 -9597 -10z m10843 -3382 c15 -8 36 -25 48 -38
11 -12 51 -49 87 -81 60 -52 73 -71 127 -180 97 -198 132 -346 132 -569 l1
-138 28 0 c67 0 493 -95 738 -165 1510 -428 2680 -1332 3508 -2710 111 -184
167 -296 272 -537 331 -768 522 -1522 586 -2313 28 -340 21 -822 -16 -1195
-46 -472 -163 -1015 -326 -1515 -45 -139 -156 -444 -192 -528 l-19 -44 -84 -7
c-45 -4 -200 -21 -343 -37 -143 -17 -327 -37 -410 -44 -198 -20 -294 -30 -580
-66 -232 -29 -243 -31 -322 -69 l-81 -40 -65 -132 c-76 -153 -107 -230 -107
-261 0 -49 -458 -1284 -523 -1412 l-52 -100 -12 110 c-27 246 -64 424 -144
685 -141 462 -209 647 -331 900 -38 80 -90 199 -114 265 -44 119 -150 362
-165 379 -5 5 -31 -12 -61 -41 -64 -60 -72 -64 -185 -105 -216 -76 -374 -93
-818 -86 -306 5 -311 6 -369 67 -25 26 -30 42 -34 91 l-4 60 -47 0 c-72 1
-128 31 -151 82 -11 24 -20 60 -20 81 0 34 -2 38 -21 32 -12 -4 -47 -7 -78 -8
-103 -1 -155 48 -167 155 l-7 58 -96 0 c-107 1 -202 18 -247 44 -30 18 -38 16
-705 -116 -370 -74 -675 -134 -676 -134 -3 2 -42 191 -40 193 2 2 513 103 977
193 359 70 409 82 602 141 l97 30 -19 32 c-26 41 -27 117 -2 145 9 11 97 68
195 126 98 59 244 150 324 202 170 111 214 134 305 162 l68 21 142 -28 c79
-16 172 -41 208 -55 36 -15 83 -29 105 -32 55 -8 315 -98 401 -139 87 -42 230
-136 309 -204 39 -34 68 -51 86 -51 25 0 27 4 42 83 65 353 103 547 107 547 3
0 16 -30 29 -67 57 -161 202 -557 205 -560 2 -2 88 -10 192 -19 104 -8 273
-23 376 -34 276 -30 446 -14 644 61 28 11 73 23 100 28 27 4 94 26 149 48 55
22 130 50 167 62 37 12 78 31 92 42 13 10 38 22 54 25 42 9 101 60 123 108 34
75 27 108 -97 466 -176 510 -514 1500 -705 2067 -193 575 -246 721 -331 913
-61 138 -177 367 -242 477 -44 75 -187 220 -304 308 -181 136 -1052 546 -1890
890 -75 31 -107 51 -163 103 l-69 64 -19 -23 c-11 -13 -32 -58 -46 -99 -53
-149 -150 -273 -256 -330 -35 -18 -77 -43 -93 -54 -31 -21 -31 -21 -25 -91 8
-88 -6 -249 -27 -329 -25 -92 -94 -231 -159 -321 -32 -44 -81 -114 -108 -155
-28 -41 -89 -116 -136 -165 -317 -332 -393 -438 -512 -708 l-40 -91 21 -25
c11 -14 23 -34 27 -43 3 -10 9 -18 14 -18 13 0 11 -407 -2 -452 l-10 -38 -69
0 -70 0 0 245 c0 208 2 245 15 245 14 0 35 56 35 93 0 30 -94 227 -153 322
-31 50 -95 135 -143 190 -99 114 -269 320 -365 445 -72 93 -97 137 -124 219
-9 29 -25 61 -35 71 -21 21 -65 197 -80 320 -5 46 -10 150 -10 231 0 159 3
170 62 184 23 6 28 14 35 53 4 26 8 112 8 192 l0 146 -65 72 c-36 40 -85 103
-110 141 l-45 68 -40 -25 c-22 -13 -57 -41 -78 -61 -33 -31 -136 -180 -193
-279 -15 -28 -35 -40 -104 -67 -83 -32 -144 -56 -505 -197 -344 -134 -903
-372 -1052 -446 -257 -130 -536 -356 -625 -507 -146 -246 -293 -605 -374 -910
-35 -132 -42 -211 -24 -246 15 -27 63 -49 107 -49 43 0 90 -27 109 -62 24 -41
11 -219 -21 -299 -5 -13 3 -18 38 -23 66 -10 130 -55 156 -110 23 -47 24 -82
5 -203 -5 -38 -2 -47 25 -81 17 -22 35 -51 41 -66 16 -43 11 -127 -9 -172 -15
-34 -17 -50 -10 -89 10 -56 -3 -117 -31 -145 -23 -23 -81 -40 -137 -40 l-43 0
0 -89 c0 -50 4 -92 9 -95 5 -3 19 -43 32 -88 18 -65 23 -109 24 -198 l0 -115
-109 -199 c-124 -228 -124 -227 -30 -265 33 -13 102 -46 156 -72 97 -49 298
-116 506 -170 90 -23 135 -29 216 -29 132 0 142 8 185 146 34 112 97 357 107
422 19 121 42 60 245 -645 244 -844 476 -1643 744 -2553 117 -399 244 -828
281 -955 37 -126 72 -235 78 -242 21 -23 130 -44 231 -44 55 0 273 5 485 10
212 6 1255 11 2318 11 l1932 0 0 -22 c0 -30 -79 -264 -118 -349 l-30 -66 -148
-41 c-261 -72 -451 -120 -774 -192 -464 -105 -810 -188 -1230 -296 -206 -54
-392 -99 -413 -102 l-39 -4 29 -30 c54 -57 119 -98 155 -98 19 0 43 -7 54 -15
17 -13 14 -14 -41 -15 -105 -1 -190 -18 -620 -125 -441 -109 -888 -230 -1290
-347 -267 -78 -295 -81 -430 -48 -77 19 -395 70 -435 70 -23 0 -27 -31 -10
-74 9 -26 9 -26 -41 -26 -93 0 -242 21 -357 51 -73 19 -160 33 -241 39 -129
10 -441 50 -1126 144 -214 30 -426 57 -470 61 -125 10 -448 52 -575 75 -63 11
-151 25 -195 31 -44 5 -104 17 -133 25 -44 12 -52 18 -46 32 4 9 9 31 11 48
l5 30 -134 13 c-117 10 -266 29 -475 60 -69 10 -147 43 -210 89 -37 28 -46 44
-93 164 -29 73 -76 205 -105 293 -68 206 -216 625 -293 830 -33 88 -86 248
-117 355 -32 107 -82 258 -110 335 -44 119 -414 1236 -889 2683 -69 211 -126
395 -126 408 0 57 55 119 123 139 44 13 67 12 255 -10 180 -22 614 -65 648
-65 9 0 9 11 3 41 -42 184 -99 615 -119 884 -13 182 -13 681 0 860 53 719 223
1399 512 2054 75 170 237 492 320 636 125 215 327 497 536 745 136 161 513
538 667 666 691 574 1475 954 2399 1164 76 17 142 28 146 23 4 -4 15 -39 25
-78 23 -90 96 -294 139 -388 l33 -74 64 -7 c93 -9 155 -43 219 -121 58 -70
149 -212 150 -232 0 -7 4 -13 9 -13 25 0 30 208 8 315 -9 39 -18 100 -22 138
l-7 67 26 0 c67 0 132 47 198 143 79 115 113 259 97 402 -8 73 -11 79 -60 137
-57 65 -56 77 11 78 93 1 512 60 755 106 241 46 560 133 773 211 208 75 489
239 677 396 50 42 91 76 93 76 2 1 15 -5 30 -13z m-2133 -26 c-18 -28 -285
-89 -424 -95 l-96 -5 135 30 c74 16 173 41 220 54 89 25 176 33 165 16z m992
-5992 c-3 -8 -6 -5 -6 6 -1 11 2 17 5 13 3 -3 4 -12 1 -19z"/>
<path d="M10623 14743 l-113 -4 0 -82 c0 -79 1 -85 30 -112 34 -32 51 -33 278
-14 93 8 144 8 206 -1 88 -13 104 -10 166 39 32 25 24 34 -100 117 l-97 64
-129 -2 c-71 -1 -180 -4 -241 -5z"/>
<path d="M9520 14514 c-52 -13 -172 -37 -266 -52 -132 -22 -179 -34 -205 -52
-85 -59 -163 -126 -216 -187 l-57 -65 24 -19 c48 -36 84 -35 163 5 57 29 104
43 232 66 88 16 210 41 272 55 l111 26 18 42 c14 36 34 209 23 206 -2 -1 -47
-12 -99 -25z"/>
<path d="M10710 14282 c-55 -56 -110 -144 -110 -178 0 -9 20 10 44 43 50 67
116 123 144 123 10 0 27 -9 37 -20 16 -18 17 -26 7 -71 -15 -62 -15 -93 -1
-143 l11 -39 53 6 c68 7 124 33 136 64 13 35 11 99 -5 136 -19 46 -86 101
-147 120 -86 28 -103 24 -169 -41z"/>
<path d="M9153 14020 c-95 -38 -193 -166 -193 -252 0 -21 4 -38 8 -38 9 0 33
43 53 99 32 87 130 151 232 151 l57 0 0 -49 c0 -64 19 -204 30 -214 16 -17 80
-25 124 -15 53 11 66 37 66 132 0 65 -20 120 -62 169 -22 26 -27 27 -143 32
-106 5 -126 3 -172 -15z"/>
<path d="M10610 12935 c-19 -14 -42 -25 -51 -25 -9 0 -40 -8 -70 -19 -30 -10
-81 -21 -114 -25 -33 -4 -139 -19 -235 -33 -175 -25 -305 -27 -466 -7 -48 6
-52 5 -59 -17 -7 -20 0 -31 45 -71 32 -28 82 -60 126 -78 93 -38 110 -38 51 1
-26 17 -65 52 -88 77 l-41 47 234 6 c339 10 499 36 596 98 20 12 25 12 33 0
14 -23 11 -34 -31 -97 -48 -71 -122 -125 -200 -146 l-55 -15 46 0 c71 -1 137
26 189 78 56 57 160 252 133 251 -4 -1 -24 -12 -43 -25z"/>
<path d="M5423 12405 c-3 -9 -2 -33 3 -53 11 -49 11 -179 1 -564 l-9 -318 30
0 30 0 7 278 c7 279 20 537 31 625 l6 47 -46 0 c-33 0 -48 -5 -53 -15z"/>
<path d="M5111 9734 c0 -11 3 -14 6 -6 3 7 2 16 -1 19 -3 4 -6 -2 -5 -13z"/>
<path d="M4999 9573 c-13 -16 -12 -17 4 -4 9 7 17 15 17 17 0 8 -8 3 -21 -13z"/>
<path d="M4895 9460 c-3 -5 -1 -10 4 -10 6 0 11 5 11 10 0 6 -2 10 -4 10 -3 0
-8 -4 -11 -10z"/>
<path d="M11278 7123 c-8 -10 -27 -41 -42 -68 -55 -104 -95 -139 -243 -210
-75 -36 -134 -67 -131 -70 5 -5 223 51 348 90 139 44 352 127 343 135 -4 4
-30 15 -56 25 -27 9 -78 39 -113 66 -69 54 -83 58 -106 32z"/>
<path d="M8470 2826 c0 -50 20 -75 64 -81 160 -21 663 -97 671 -100 18 -8
-183 5 -394 26 -235 23 -305 18 -282 -19 8 -13 242 -59 536 -106 83 -13 142
-25 132 -25 -10 -1 -155 8 -324 19 -168 12 -308 19 -310 16 -6 -6 4 -46 14
-61 9 -12 630 -86 713 -85 69 1 208 44 170 53 -14 3 -60 13 -102 22 -43 9 -78
18 -78 19 0 1 85 0 188 -2 173 -4 190 -3 206 14 18 18 16 19 -99 36 -64 10
-154 28 -199 40 l-81 22 70 12 c39 7 87 20 109 29 50 21 69 5 26 -22 -28 -18
-29 -21 -15 -33 12 -10 69 -13 238 -14 208 -1 226 0 290 23 38 12 66 25 64 28
-6 5 -299 45 -1027 138 -278 36 -522 68 -542 71 -36 5 -38 4 -38 -20z"/>
<path d="M8638 2413 c-32 -2 -58 -7 -58 -11 0 -11 31 -55 48 -69 9 -7 43 -13
76 -13 34 0 78 -3 99 -6 33 -6 35 -8 20 -20 -29 -20 -5 -30 30 -12 18 9 85 24
151 34 110 17 146 30 146 55 0 33 -282 56 -512 42z m180 -80 c-10 -2 -26 -2
-35 0 -10 3 -2 5 17 5 19 0 27 -2 18 -5z"/>
<path d="M8688 2268 c-24 -8 -47 -43 -36 -54 3 -2 22 5 43 16 22 11 50 20 64
20 30 0 24 8 -15 19 -16 4 -41 4 -56 -1z"/>
<path d="M4978 2253 c7 -3 16 -2 19 1 4 3 -2 6 -13 5 -11 0 -14 -3 -6 -6z"/>
<path d="M5048 2243 c6 -2 18 -2 25 0 6 3 1 5 -13 5 -14 0 -19 -2 -12 -5z"/>
<path d="M5128 2233 c6 -2 18 -2 25 0 6 3 1 5 -13 5 -14 0 -19 -2 -12 -5z"/>
<path d="M5198 2223 c6 -2 18 -2 25 0 6 3 1 5 -13 5 -14 0 -19 -2 -12 -5z"/>
<path d="M5283 2213 c9 -2 23 -2 30 0 6 3 -1 5 -18 5 -16 0 -22 -2 -12 -5z"/>
<path d="M5353 2203 c9 -2 23 -2 30 0 6 3 -1 5 -18 5 -16 0 -22 -2 -12 -5z"/>
<path d="M5433 2193 c9 -2 23 -2 30 0 6 3 -1 5 -18 5 -16 0 -22 -2 -12 -5z"/>
<path d="M5503 2183 c9 -2 23 -2 30 0 6 3 -1 5 -18 5 -16 0 -22 -2 -12 -5z"/>
<path d="M5573 2173 c9 -2 25 -2 35 0 9 3 1 5 -18 5 -19 0 -27 -2 -17 -5z"/>
<path d="M5653 2163 c9 -2 23 -2 30 0 6 3 -1 5 -18 5 -16 0 -22 -2 -12 -5z"/>
<path d="M5733 2153 c9 -2 23 -2 30 0 6 3 -1 5 -18 5 -16 0 -22 -2 -12 -5z"/>
<path d="M5803 2143 c9 -2 23 -2 30 0 6 3 -1 5 -18 5 -16 0 -22 -2 -12 -5z"/>
<path d="M5873 2133 c9 -2 23 -2 30 0 6 3 -1 5 -18 5 -16 0 -22 -2 -12 -5z"/>
<path d="M5943 2123 c9 -2 25 -2 35 0 9 3 1 5 -18 5 -19 0 -27 -2 -17 -5z"/>
<path d="M6023 2113 c9 -2 23 -2 30 0 6 3 -1 5 -18 5 -16 0 -22 -2 -12 -5z"/>
<path d="M6093 2103 c9 -2 25 -2 35 0 9 3 1 5 -18 5 -19 0 -27 -2 -17 -5z"/>
<path d="M6173 2093 c9 -2 23 -2 30 0 6 3 -1 5 -18 5 -16 0 -22 -2 -12 -5z"/>
<path d="M6243 2083 c9 -2 25 -2 35 0 9 3 1 5 -18 5 -19 0 -27 -2 -17 -5z"/>
<path d="M6313 2073 c9 -2 25 -2 35 0 9 3 1 5 -18 5 -19 0 -27 -2 -17 -5z"/>
<path d="M6393 2063 c9 -2 23 -2 30 0 6 3 -1 5 -18 5 -16 0 -22 -2 -12 -5z"/>
<path d="M6463 2053 c9 -2 23 -2 30 0 6 3 -1 5 -18 5 -16 0 -22 -2 -12 -5z"/>
<path d="M6543 2043 c9 -2 23 -2 30 0 6 3 -1 5 -18 5 -16 0 -22 -2 -12 -5z"/>
<path d="M6613 2033 c9 -2 23 -2 30 0 6 3 -1 5 -18 5 -16 0 -22 -2 -12 -5z"/>
<path d="M6683 2023 c9 -2 23 -2 30 0 6 3 -1 5 -18 5 -16 0 -22 -2 -12 -5z"/>
<path d="M6753 2013 c9 -2 23 -2 30 0 6 3 -1 5 -18 5 -16 0 -22 -2 -12 -5z"/>
<path d="M6823 2003 c9 -2 23 -2 30 0 6 3 -1 5 -18 5 -16 0 -22 -2 -12 -5z"/>
<path d="M6898 1993 c6 -2 18 -2 25 0 6 3 1 5 -13 5 -14 0 -19 -2 -12 -5z"/>
<path d="M6973 1983 c9 -2 23 -2 30 0 6 3 -1 5 -18 5 -16 0 -22 -2 -12 -5z"/>
<path d="M7038 1973 c6 -2 18 -2 25 0 6 3 1 5 -13 5 -14 0 -19 -2 -12 -5z"/>
<path d="M7118 1963 c7 -3 16 -2 19 1 4 3 -2 6 -13 5 -11 0 -14 -3 -6 -6z"/>
<path d="M7188 1953 c7 -3 16 -2 19 1 4 3 -2 6 -13 5 -11 0 -14 -3 -6 -6z"/>
<path d="M7258 1943 c7 -3 16 -2 19 1 4 3 -2 6 -13 5 -11 0 -14 -3 -6 -6z"/>
<path d="M7328 1933 c7 -3 16 -2 19 1 4 3 -2 6 -13 5 -11 0 -14 -3 -6 -6z"/>
<path d="M7398 1923 c7 -3 16 -2 19 1 4 3 -2 6 -13 5 -11 0 -14 -3 -6 -6z"/>
</g>
</svg>
